<svg width="348" height="433" viewBox="0 0 348 433" fill="none" xmlns="http://www.w3.org/2000/svg">
<g opacity="0.1">
<path d="M85.2754 395.259L83.586 391.881C78.2362 377.242 85.557 361.195 100.198 355.846C100.48 355.846 100.762 355.564 101.325 355.564L231.691 311.365V191.718C231.691 176.798 222.399 163.566 208.602 158.217C175.377 145.549 115.685 123.027 99.6354 117.678C81.6151 111.766 83.8676 91.2149 85.8386 83.0508C71.1971 91.4965 61.9053 106.699 60.779 123.308V357.254C60.779 367.952 64.7209 378.086 72.0417 385.969C75.4205 390.192 80.2072 393.289 85.2754 395.259Z" fill="#F8F8F8"/>
<path opacity="0.53" d="M231.399 311.362V397.241C231.399 416.95 215.349 433 195.64 433C191.416 433 187.474 432.155 183.532 430.747L85.265 395.27L83.5756 391.891C78.2258 377.249 85.5466 361.2 100.188 355.85C100.47 355.85 100.751 355.568 101.314 355.568L231.399 311.362Z" fill="#F8F8F8"/>
<path d="M60.2111 155.402V351.06C59.9295 316.714 60.2111 209.454 60.2111 155.402Z" fill="#F8F8F8"/>
<path opacity="0.78" d="M347.695 27.5875V252.524C347.695 264.348 340.375 274.764 329.112 278.424L231.408 311.362V191.715C231.408 176.794 222.116 163.563 208.319 158.214C175.094 145.545 115.402 123.024 99.3525 117.675C81.3322 111.763 83.5847 91.2116 85.5557 83.0474C86.682 82.4844 87.5267 81.9214 88.653 81.3584L311.092 1.68737C325.452 -3.38004 340.938 3.93961 346.006 18.2973C347.132 21.1125 347.695 24.4907 347.695 27.5875Z" fill="#F8F8F8"/>
<path d="M26.7064 37.7256L28.3957 41.1037C33.7455 55.7429 26.4247 71.7898 11.7832 77.1387C11.5016 77.1387 11.2201 77.4202 10.657 77.4202L-119.709 121.619V241.266C-119.709 256.187 -110.417 269.418 -96.6204 274.767C-63.1139 287.436 -3.703 309.958 12.3464 315.307C30.3667 321.219 28.1142 341.77 26.1432 349.934C40.7847 341.488 50.0764 326.568 51.2027 309.676V75.4495C51.2027 64.7516 46.9792 54.6168 39.94 46.7342C36.2796 42.7929 31.7746 39.4147 26.7064 37.7256Z" fill="#F8F8F8"/>
<path opacity="0.53" d="M-119.709 121.637V35.7592C-119.709 16.0494 -103.66 0 -83.9499 0C-79.7264 0 -75.7844 0.844669 -71.8424 2.25251L26.7064 37.7302L28.3957 41.1088C33.7455 55.7504 26.4247 71.7999 11.7832 77.1497C11.5016 77.1497 11.2201 77.4312 10.657 77.4312L-119.709 121.637Z" fill="#F8F8F8"/>
<path opacity="0.78" d="M-236 405.393V180.456C-236 168.632 -228.398 158.216 -217.417 154.556L-119.712 121.618V241.265C-119.712 256.186 -110.421 269.417 -96.6239 274.766C-63.1173 287.435 -3.70648 309.957 12.3429 315.306C30.3632 321.218 28.1107 341.769 26.1397 349.933C25.0134 350.496 24.1687 351.059 23.0424 351.622L-199.396 431.293C-213.475 436.36 -229.242 429.041 -234.311 414.965C-235.437 411.868 -236 408.771 -236 405.393Z" fill="#F8F8F8"/>
<circle cx="172" cy="256" r="50" fill="#D9D9D9"/>
</g>
</svg>
