<svg width="84" height="30" viewBox="0 0 84 30" fill="none" xmlns="http://www.w3.org/2000/svg">
<g filter="url(#filter0_ii_3940_11377)">
<rect width="84" height="30" rx="15" fill="#AFE274" fill-opacity="0.2"/>
<path d="M19.289 15.6318L22.7782 10.1488C23.0467 9.72677 23.7 9.917 23.7 10.4172V14.2002C23.7 14.2554 23.7448 14.3002 23.8 14.3002H26.2397C26.6442 14.3002 26.8812 14.7555 26.6493 15.0869L23.2096 20.0007C22.9293 20.4012 22.3 20.2029 22.3 19.714V16.5002C22.3 16.445 22.2552 16.4002 22.2 16.4002H19.7108C19.3163 16.4002 19.0772 15.9646 19.289 15.6318Z" stroke="#3B3A3A"/>
<path d="M41.68 17.34H43.06C43.32 17.34 43.5633 17.3133 43.79 17.26C44.0167 17.2067 44.2133 17.1267 44.38 17.02C44.5467 16.9067 44.6767 16.7667 44.77 16.6C44.87 16.4333 44.92 16.2333 44.92 16C44.92 15.5333 44.77 15.1867 44.47 14.96C44.17 14.7333 43.73 14.62 43.15 14.62H41.68V17.34ZM41.68 14.02H43.13C43.3033 14.02 43.4733 14 43.64 13.96C43.8133 13.9133 43.9667 13.84 44.1 13.74C44.24 13.64 44.3533 13.5133 44.44 13.36C44.5267 13.2 44.57 13.0067 44.57 12.78C44.57 12.7067 44.5533 12.6033 44.52 12.47C44.4933 12.3367 44.4267 12.2033 44.32 12.07C44.22 11.9367 44.07 11.8233 43.87 11.73C43.67 11.63 43.4 11.58 43.06 11.58H41.68V14.02ZM40.96 10.92H43.07C43.3633 10.92 43.6467 10.95 43.92 11.01C44.1933 11.07 44.4367 11.17 44.65 11.31C44.8633 11.45 45.0333 11.6333 45.16 11.86C45.2867 12.0867 45.35 12.3667 45.35 12.7C45.35 13.0867 45.24 13.42 45.02 13.7C44.8067 13.9733 44.5 14.1567 44.1 14.25V14.27C44.6 14.31 44.99 14.4867 45.27 14.8C45.5567 15.1067 45.7 15.52 45.7 16.04C45.7 16.1533 45.67 16.32 45.61 16.54C45.5567 16.76 45.44 16.98 45.26 17.2C45.08 17.4133 44.82 17.6 44.48 17.76C44.14 17.92 43.6867 18 43.12 18H40.96V10.92ZM47.9788 17.34H51.2788V18H47.2588V10.92H47.9788V17.34ZM58.3788 14.46C58.3788 14.0533 58.3122 13.6667 58.1788 13.3C58.0455 12.9267 57.8522 12.6 57.5988 12.32C57.3522 12.04 57.0488 11.8167 56.6888 11.65C56.3288 11.4833 55.9222 11.4 55.4688 11.4C55.0155 11.4 54.6088 11.4833 54.2488 11.65C53.8888 11.8167 53.5822 12.04 53.3288 12.32C53.0822 12.6 52.8922 12.9267 52.7588 13.3C52.6255 13.6667 52.5588 14.0533 52.5588 14.46C52.5588 14.8667 52.6255 15.2567 52.7588 15.63C52.8922 15.9967 53.0822 16.32 53.3288 16.6C53.5822 16.88 53.8888 17.1033 54.2488 17.27C54.6088 17.4367 55.0155 17.52 55.4688 17.52C55.9222 17.52 56.3288 17.4367 56.6888 17.27C57.0488 17.1033 57.3522 16.88 57.5988 16.6C57.8522 16.32 58.0455 15.9967 58.1788 15.63C58.3122 15.2567 58.3788 14.8667 58.3788 14.46ZM59.1588 14.46C59.1588 15 59.0655 15.4967 58.8788 15.95C58.6922 16.4033 58.4322 16.7967 58.0988 17.13C57.7722 17.4567 57.3822 17.7133 56.9288 17.9C56.4822 18.0867 55.9955 18.18 55.4688 18.18C54.9422 18.18 54.4522 18.0867 53.9988 17.9C53.5522 17.7133 53.1622 17.4567 52.8288 17.13C52.5022 16.7967 52.2455 16.4033 52.0588 15.95C51.8722 15.4967 51.7788 15 51.7788 14.46C51.7788 13.92 51.8722 13.4233 52.0588 12.97C52.2455 12.5167 52.5022 12.1267 52.8288 11.8C53.1622 11.4667 53.5522 11.2067 53.9988 11.02C54.4522 10.8333 54.9422 10.74 55.4688 10.74C55.9955 10.74 56.4822 10.8333 56.9288 11.02C57.3822 11.2067 57.7722 11.4667 58.0988 11.8C58.4322 12.1267 58.6922 12.5167 58.8788 12.97C59.0655 13.4233 59.1588 13.92 59.1588 14.46ZM65.8287 12.22C65.5887 11.9667 65.302 11.7667 64.9687 11.62C64.6353 11.4733 64.2487 11.4 63.8087 11.4C63.3553 11.4 62.9487 11.4833 62.5887 11.65C62.2287 11.8167 61.922 12.04 61.6687 12.32C61.422 12.6 61.232 12.9267 61.0987 13.3C60.9653 13.6667 60.8987 14.0533 60.8987 14.46C60.8987 14.8667 60.9653 15.2567 61.0987 15.63C61.232 15.9967 61.422 16.32 61.6687 16.6C61.922 16.88 62.2287 17.1033 62.5887 17.27C62.9487 17.4367 63.3553 17.52 63.8087 17.52C64.1753 17.52 64.5253 17.4767 64.8587 17.39C65.1987 17.2967 65.502 17.1733 65.7687 17.02V14.65H64.0787V13.99H66.4887V17.46C66.0887 17.6933 65.6487 17.8733 65.1687 18C64.6953 18.12 64.242 18.18 63.8087 18.18C63.282 18.18 62.792 18.0867 62.3387 17.9C61.892 17.7133 61.502 17.4567 61.1687 17.13C60.842 16.7967 60.5853 16.4033 60.3987 15.95C60.212 15.4967 60.1187 15 60.1187 14.46C60.1187 13.92 60.212 13.4233 60.3987 12.97C60.5853 12.5167 60.842 12.1267 61.1687 11.8C61.502 11.4667 61.892 11.2067 62.3387 11.02C62.792 10.8333 63.282 10.74 63.8087 10.74C64.3753 10.74 64.862 10.82 65.2687 10.98C65.682 11.1333 66.0487 11.37 66.3687 11.69L65.8287 12.22Z" fill="#2F2F2F"/>
</g>
<defs>
<filter id="filter0_ii_3940_11377" x="0" y="-4" width="84" height="37" filterUnits="userSpaceOnUse" color-interpolation-filters="sRGB">
<feFlood flood-opacity="0" result="BackgroundImageFix"/>
<feBlend mode="normal" in="SourceGraphic" in2="BackgroundImageFix" result="shape"/>
<feColorMatrix in="SourceAlpha" type="matrix" values="0 0 0 0 0 0 0 0 0 0 0 0 0 0 0 0 0 0 127 0" result="hardAlpha"/>
<feOffset dy="-4"/>
<feGaussianBlur stdDeviation="2"/>
<feComposite in2="hardAlpha" operator="arithmetic" k2="-1" k3="1"/>
<feColorMatrix type="matrix" values="0 0 0 0 0.930339 0 0 0 0 0.97113 0 0 0 0 0.763097 0 0 0 0.1 0"/>
<feBlend mode="normal" in2="shape" result="effect1_innerShadow_3940_11377"/>
<feColorMatrix in="SourceAlpha" type="matrix" values="0 0 0 0 0 0 0 0 0 0 0 0 0 0 0 0 0 0 127 0" result="hardAlpha"/>
<feOffset dy="3"/>
<feGaussianBlur stdDeviation="2"/>
<feComposite in2="hardAlpha" operator="arithmetic" k2="-1" k3="1"/>
<feColorMatrix type="matrix" values="0 0 0 0 0.490811 0 0 0 0 0.536249 0 0 0 0 0.304512 0 0 0 0.04 0"/>
<feBlend mode="normal" in2="effect1_innerShadow_3940_11377" result="effect2_innerShadow_3940_11377"/>
</filter>
</defs>
</svg>
