<svg width="82" height="30" viewBox="0 0 82 30" fill="none" xmlns="http://www.w3.org/2000/svg">
<g filter="url(#filter0_ii_3940_11347)">
<rect width="82" height="30" rx="15" fill="#AFE274" fill-opacity="0.2"/>
<path d="M19.289 15.6318L22.7782 10.1488C23.0467 9.72677 23.7 9.917 23.7 10.4172V14.2002C23.7 14.2554 23.7448 14.3002 23.8 14.3002H26.2397C26.6442 14.3002 26.8812 14.7555 26.6493 15.0869L23.2096 20.0007C22.9293 20.4012 22.3 20.2029 22.3 19.714V16.5002C22.3 16.445 22.2552 16.4002 22.2 16.4002H19.7108C19.3163 16.4002 19.0772 15.9646 19.289 15.6318Z" stroke="#3B3A3A"/>
<path d="M41.68 18H40.96V10.92H45.23V11.58H41.68V13.99H44.98V14.65H41.68V18ZM46.8998 15.48H49.9698L48.4398 11.76L46.8998 15.48ZM45.8498 18H45.0098L48.0898 10.92H48.7898L51.8698 18H51.0298L50.2498 16.14H46.6298L45.8498 18ZM59.9752 18H55.9252C55.4119 18 54.9352 17.91 54.4952 17.73C54.0619 17.55 53.6852 17.3 53.3652 16.98C53.0452 16.6533 52.7952 16.27 52.6152 15.83C52.4352 15.3833 52.3452 14.8967 52.3452 14.37C52.3452 13.8433 52.4352 13.36 52.6152 12.92C52.7952 12.4733 53.0452 12.09 53.3652 11.77C53.6852 11.4433 54.0619 11.19 54.4952 11.01C54.9352 10.83 55.4119 10.74 55.9252 10.74C56.4319 10.74 56.9019 10.83 57.3352 11.01C57.7752 11.19 58.1552 11.4433 58.4752 11.77C58.7952 12.09 59.0452 12.4733 59.2252 12.92C59.4052 13.36 59.4952 13.8433 59.4952 14.37C59.4952 15.01 59.3619 15.5867 59.0952 16.1C58.8352 16.6067 58.4152 17.0133 57.8352 17.32V17.34H59.9752V18ZM53.1252 14.37C53.1252 14.7633 53.1886 15.14 53.3152 15.5C53.4419 15.8533 53.6252 16.1667 53.8652 16.44C54.1052 16.7133 54.3986 16.9333 54.7452 17.1C55.0919 17.26 55.4852 17.34 55.9252 17.34C56.3586 17.34 56.7486 17.26 57.0952 17.1C57.4419 16.9333 57.7352 16.7133 57.9752 16.44C58.2152 16.1667 58.3986 15.8533 58.5252 15.5C58.6519 15.14 58.7152 14.7633 58.7152 14.37C58.7152 13.9767 58.6519 13.6033 58.5252 13.25C58.3986 12.89 58.2152 12.5733 57.9752 12.3C57.7352 12.0267 57.4419 11.81 57.0952 11.65C56.7486 11.4833 56.3586 11.4 55.9252 11.4C55.4852 11.4 55.0919 11.4833 54.7452 11.65C54.3986 11.81 54.1052 12.0267 53.8652 12.3C53.6252 12.5733 53.4419 12.89 53.3152 13.25C53.1886 13.6033 53.1252 13.9767 53.1252 14.37ZM64.5151 12.09C64.2017 11.63 63.7451 11.4 63.1451 11.4C62.9584 11.4 62.7751 11.4267 62.5951 11.48C62.4151 11.5267 62.2517 11.6033 62.1051 11.71C61.9651 11.81 61.8517 11.9433 61.7651 12.11C61.6784 12.27 61.6351 12.46 61.6351 12.68C61.6351 13 61.7251 13.25 61.9051 13.43C62.0851 13.6033 62.3084 13.7467 62.5751 13.86C62.8417 13.9733 63.1317 14.0767 63.4451 14.17C63.7651 14.2567 64.0584 14.3767 64.3251 14.53C64.5917 14.6767 64.8151 14.8733 64.9951 15.12C65.1751 15.3667 65.2651 15.7033 65.2651 16.13C65.2651 16.45 65.1951 16.74 65.0551 17C64.9217 17.2533 64.7417 17.4667 64.5151 17.64C64.2951 17.8133 64.0451 17.9467 63.7651 18.04C63.4917 18.1333 63.2151 18.18 62.9351 18.18C62.5017 18.18 62.0884 18.1 61.6951 17.94C61.3084 17.7733 60.9784 17.5033 60.7051 17.13L61.3551 16.66C61.5084 16.92 61.7217 17.13 61.9951 17.29C62.2684 17.4433 62.5917 17.52 62.9651 17.52C63.1451 17.52 63.3251 17.4933 63.5051 17.44C63.6851 17.38 63.8451 17.2967 63.9851 17.19C64.1317 17.0767 64.2517 16.94 64.3451 16.78C64.4384 16.62 64.4851 16.4367 64.4851 16.23C64.4851 15.9833 64.4317 15.78 64.3251 15.62C64.2251 15.4533 64.0884 15.3167 63.9151 15.21C63.7484 15.0967 63.5551 15.0033 63.3351 14.93C63.1217 14.8567 62.8984 14.7833 62.6651 14.71C62.4384 14.6367 62.2151 14.5533 61.9951 14.46C61.7817 14.3667 61.5884 14.25 61.4151 14.11C61.2484 13.9633 61.1117 13.7833 61.0051 13.57C60.9051 13.35 60.8551 13.0767 60.8551 12.75C60.8551 12.41 60.9184 12.1133 61.0451 11.86C61.1784 11.6067 61.3517 11.3967 61.5651 11.23C61.7851 11.0633 62.0317 10.94 62.3051 10.86C62.5784 10.78 62.8584 10.74 63.1451 10.74C63.5451 10.74 63.9084 10.8033 64.2351 10.93C64.5617 11.0567 64.8651 11.28 65.1451 11.6L64.5151 12.09Z" fill="#2F2F2F"/>
</g>
<defs>
<filter id="filter0_ii_3940_11347" x="0" y="-4" width="82" height="37" filterUnits="userSpaceOnUse" color-interpolation-filters="sRGB">
<feFlood flood-opacity="0" result="BackgroundImageFix"/>
<feBlend mode="normal" in="SourceGraphic" in2="BackgroundImageFix" result="shape"/>
<feColorMatrix in="SourceAlpha" type="matrix" values="0 0 0 0 0 0 0 0 0 0 0 0 0 0 0 0 0 0 127 0" result="hardAlpha"/>
<feOffset dy="-4"/>
<feGaussianBlur stdDeviation="2"/>
<feComposite in2="hardAlpha" operator="arithmetic" k2="-1" k3="1"/>
<feColorMatrix type="matrix" values="0 0 0 0 0.930339 0 0 0 0 0.97113 0 0 0 0 0.763097 0 0 0 0.1 0"/>
<feBlend mode="normal" in2="shape" result="effect1_innerShadow_3940_11347"/>
<feColorMatrix in="SourceAlpha" type="matrix" values="0 0 0 0 0 0 0 0 0 0 0 0 0 0 0 0 0 0 127 0" result="hardAlpha"/>
<feOffset dy="3"/>
<feGaussianBlur stdDeviation="2"/>
<feComposite in2="hardAlpha" operator="arithmetic" k2="-1" k3="1"/>
<feColorMatrix type="matrix" values="0 0 0 0 0.490811 0 0 0 0 0.536249 0 0 0 0 0.304512 0 0 0 0.04 0"/>
<feBlend mode="normal" in2="effect1_innerShadow_3940_11347" result="effect2_innerShadow_3940_11347"/>
</filter>
</defs>
</svg>
