<svg width="52" height="53" viewBox="0 0 52 53" fill="none" xmlns="http://www.w3.org/2000/svg">
<g filter="url(#filter0_d_3940_11407)">
<rect x="5" y="2.94141" width="44" height="44" rx="22" fill="white" shape-rendering="crispEdges"/>
<rect x="5.25" y="3.19141" width="43.5" height="43.5" rx="21.75" stroke="#F6F6F6" stroke-width="0.5" shape-rendering="crispEdges"/>
<path d="M30 33.6109C29.81 33.6109 29.62 33.5409 29.47 33.3909L22.95 26.8709C21.89 25.8109 21.89 24.0709 22.95 23.0109L29.47 16.4909C29.76 16.2009 30.24 16.2009 30.53 16.4909C30.82 16.7809 30.82 17.2609 30.53 17.5509L24.01 24.0709C23.53 24.5509 23.53 25.3309 24.01 25.8109L30.53 32.3309C30.82 32.6209 30.82 33.1009 30.53 33.3909C30.38 33.5309 30.19 33.6109 30 33.6109Z" fill="#292D32"/>
</g>
<defs>
<filter id="filter0_d_3940_11407" x="0" y="0.941406" width="52" height="52" filterUnits="userSpaceOnUse" color-interpolation-filters="sRGB">
<feFlood flood-opacity="0" result="BackgroundImageFix"/>
<feColorMatrix in="SourceAlpha" type="matrix" values="0 0 0 0 0 0 0 0 0 0 0 0 0 0 0 0 0 0 127 0" result="hardAlpha"/>
<feOffset dx="-1" dy="2"/>
<feGaussianBlur stdDeviation="2"/>
<feComposite in2="hardAlpha" operator="out"/>
<feColorMatrix type="matrix" values="0 0 0 0 0.253831 0 0 0 0 0.513426 0 0 0 0 0.247651 0 0 0 0.12 0"/>
<feBlend mode="normal" in2="BackgroundImageFix" result="effect1_dropShadow_3940_11407"/>
<feBlend mode="normal" in="SourceGraphic" in2="effect1_dropShadow_3940_11407" result="shape"/>
</filter>
</defs>
</svg>
